<?xml version="1.0" encoding="utf-8"?>
<!-- Generator: Adobe Illustrator 25.4.1, SVG Export Plug-In . SVG Version: 6.00 Build 0)  -->
<svg version="1.1" id="Слой_1" xmlns="http://www.w3.org/2000/svg" xmlns:xlink="http://www.w3.org/1999/xlink" x="0px" y="0px"
	 viewBox="0 0 50 50" style="enable-background:new 0 0 50 50;" xml:space="preserve">
<style type="text/css">
	.st0{fill:none;stroke:#FFFFFF;stroke-width:2;stroke-miterlimit:10;}
	.st1{fill:none;stroke:#FFFFFF;stroke-miterlimit:10;}
</style>
<path class="st0" d="M42.5,25c0,9.66-7.84,17.5-17.5,17.5c-4.92,0-9.36-2.03-12.54-5.29C9.39,34.05,7.5,29.75,7.5,25
	c0-9.66,7.84-17.5,17.5-17.5S42.5,15.34,42.5,25z"/>
<path class="st1" d="M25,25"/>
<path class="st0" d="M37.5,36.41C36.01,34.79,28,33,28,33s-0.11-0.87-0.12-1.01c-0.02-0.21,0.05-0.42,0.1-0.63
	C28,31.23,28,31.1,28,30.97c0,0-0.04-0.95,0-1.26c0.06-0.56,0.35-1.52,0.93-2.06c0,0,0.01-0.01,0.01-0.01
	c0.33-0.31,0.67-0.63,0.91-1.01c0.43-0.69,0.04-1.55,0.23-2.33c0.11-0.45,0.75-0.68,0.97-1.09c0.22-0.41,0.31-0.91,0.13-1.34
	c-0.08-0.19-0.21-0.36-0.38-0.48c-0.24-0.18-0.76-0.17-0.8-0.47l0.52-2.11c0.48-1.13,1.17-2.94,0.18-3.67
	c-0.62-0.46-1.17-1.04-1.86-1.39c-0.19-0.09-0.52-0.16-0.73-0.14c-0.77,0.05-1.51,0.36-2.29,0.36c-0.54,0-1.09-0.05-1.62,0.05
	c-0.63,0.11-1.2,0.42-1.75,0.74c-0.89,0.53-1.75,1.12-2.52,1.82c-0.26,0.24-0.51,0.52-0.56,0.87c-0.05,0.27-0.04,0.59,0.13,0.82
	c0.5,0.66,0.5,0.66,0.73,2.58c0.04,0.3-0.45,0.38-0.69,0.56c-0.17,0.12-0.3,0.29-0.38,0.48c-0.18,0.43-0.09,0.93,0.13,1.34
	c0.22,0.41,0.86,0.64,0.97,1.09c0.19,0.79-0.2,1.65,0.23,2.33c0.24,0.38,0.58,0.7,0.91,1.01c0,0,0.01,0.01,0.01,0.01
	c0.58,0.54,0.93,1.27,0.93,2.06l0,1.26c0,0.13,0.03,0.26,0.03,0.39C22.36,31.78,22,33,22,33s-9.5,2.19-9.5,3.41"/>
<path class="st1" d="M25,25"/>
<path class="st1" d="M25,25"/>
<path class="st1" d="M25,25"/>
<path class="st1" d="M25,25"/>
<path class="st1" d="M25,25"/>
<path class="st1" d="M25,25"/>
<path class="st1" d="M25,25"/>
<path class="st1" d="M25,25"/>
<path class="st1" d="M25,25"/>
</svg>
