<?xml version="1.0" encoding="utf-8"?>
<!-- Generator: Adobe Illustrator 25.4.1, SVG Export Plug-In . SVG Version: 6.00 Build 0)  -->
<svg version="1.1" id="_x2018_лой_x5F_1" xmlns="http://www.w3.org/2000/svg" xmlns:xlink="http://www.w3.org/1999/xlink"
	 x="0px" y="0px" viewBox="0 0 3000 2000" style="enable-background:new 0 0 3000 2000;" xml:space="preserve">
<style type="text/css">
	.st0{fill:#FFFFFF;}
	.st1{fill:#69A1C4;}
	.st2{fill:#8EC6DD;}
	.st3{fill:#BBD5DE;}
	.st4{fill:#F7B686;}
	.st5{fill:#81B3CC;}
	.st6{fill:#2F1A31;}
	.st7{fill:#436E8E;}
	.st8{fill:#593860;}
	.st9{fill:#060633;}
	.st10{fill:#93CEE5;}
	.st11{fill:#EA9F75;}
	.st12{fill:#402644;}
	.st13{fill:#DEEBE9;}
	.st14{fill:#56335B;}
	.st15{fill:#FDAE5C;}
	.st16{fill:#020202;}
	.st17{fill:#CCE2DE;}
</style>
<rect class="st0" width="3000" height="2000"/>
<g>
	<g>
		<path class="st1" d="M2909.17,422.5v1127.15c0,180.74-166.29,302.66-367.22,327.26c-51.76,6.34-103.85,10.7-158.94,13.31
			c-12.93,0.62-26.02,1.14-39.33,1.57c-25.97,0.83-52.71,1.31-80.46,1.45c-80.48,0.42-169.46-1.93-273.17-6.49
			c-40.31-1.78-82.88-3.88-128.01-6.29c-86.28-4.6-182.03-10.29-289.78-16.85c-36.87-2.23-78.66-3.7-124.1-4.52h-0.01
			c-21.71-0.4-44.25-0.65-67.48-0.77c-0.01,0-0.01,0-0.02,0c-123.56-0.67-266.54,2.2-407.39,5.86c-7.45,0.19-14.88,0.38-22.31,0.59
			c-101.75,2.73-201.75,5.8-291.86,8.18h-0.01c-12.31,0.32-24.45,0.65-36.37,0.95c-13.73,0.32-27.18,0.66-40.35,0.95
			c-44.89,1.03-86.23,1.77-122.75,2.05c-202.81,1.61-367.23-146.52-367.23-327.26V422.5c0-180.74,164.77-337.89,367.23-327.26
			c188.02,9.87,464.57,48.96,752.85,25.02c203.77-16.91,516.28-32.33,806.81-36.23c73.04-1,144.67-1.25,212.85-0.62
			c116.98,1.08,223.75,4.76,309.83,11.83C2743.9,111.85,2909.17,241.76,2909.17,422.5z"/>
	</g>
	<g>
		<ellipse class="st2" cx="1498.62" cy="1586.22" rx="1189.52" ry="111.35"/>
	</g>
	<g>
		<polygon class="st3" points="993.3,1591.53 1713.82,1590.02 2018.44,669.05 1834.48,561.22 		"/>
	</g>
	<g>
		<g>
			<path class="st4" d="M637.03,1141.38c-3.56,5.7-8.07,18.55-11.52,24.32c-1.5,2.5-5.96,11.26-3.7,13.11
				c1.96,1.6,8.76-3.64,11.71-6.53c1.2,19.29,11.47,46.91,11.84,6.31c0.02,0,0.04,0,0.07,0c0.34,4.11,2.21,26.97,7.43,24.38
				c4.61-2.29,3.94-18.71,3.46-25.48c0.06-0.01,0.12-0.02,0.18-0.03c1.08,6.84,4.1,23.27,7.78,19.65
				c4.63-4.54,4.32-22.56,4.32-22.56s0.89,23.01,6.87,18.44c3.37-2.58,1.5-15.7,0.22-23.86v0c0,0,0,0,0,0
				c-0.27-1.71-0.51-3.21-0.68-4.33c-0.14-0.94-0.36-1.75-0.64-2.48c-2.99-13.49-7.15-21.68-7.15-21.68s-3.18-10.47-15.07-9.54
				C644.58,1131.7,638.58,1138.91,637.03,1141.38z"/>
		</g>
		<g>
			<g>
				<path class="st5" d="M628.05,1144.15c-43.04-28.28,3.19-115.82-14.7-176.24c-4.14-14-5.93-19.28-9.51-27.07
					c-2.88-6.27,4.89-18.48,15.56-23.53c10.01-4.74,34.04-1.62,35.94,1.55c28.98,48.36,38.34,127.74,23.91,229.08
					C679.24,1147.95,646.52,1156.28,628.05,1144.15z"/>
			</g>
		</g>
		<g>
			<path class="st6" d="M564.1,1510.85c0,0,0.37,14.58,10.23,18.7c9.87,4.11,38.46,7.83,27.78,17.2c-6.13,5.38-35.02,1.9-43.18,1.9
				c-8.16,0-15.82,3.55-21.88-1.9c-6.67-6.01,0-35.9,0-35.9s7.04,3.67,13.37,3.5C559.54,1514.11,564.1,1510.85,564.1,1510.85z"/>
		</g>
		<g>
			<path class="st7" d="M649.23,1070.74c0,0,1.97,65.81-19.03,192.07c-15.16,91.15-33.06,182.99-41.85,227.03
				c-3.14,15.75-16.39,27.27-32.09,27.9l-8.44,0.34c-16.98,0.68-30.75-13.9-29.51-31.24l21.3-297.9l5.25-98.05L649.23,1070.74z"/>
		</g>
		<g>
			<path class="st6" d="M470.64,1510.85c0,0,0.37,14.58,10.23,18.7c9.87,4.11,38.46,7.83,27.78,17.2c-6.13,5.38-35.02,1.9-43.18,1.9
				c-8.16,0-15.82,3.55-21.88-1.9c-6.67-6.01,0-35.9,0-35.9s7.04,3.67,13.37,3.5C466.08,1514.11,470.64,1510.85,470.64,1510.85z"/>
		</g>
		<g>
			<path class="st7" d="M555.78,1070.74c0,0,1.97,65.81-19.03,192.07c-15.16,91.15-33.06,182.99-41.85,227.03
				c-3.14,15.75-16.39,27.27-32.09,27.9l-8.44,0.34c-16.98,0.68-30.75-13.9-29.51-31.24l21.3-297.9l5.25-98.05L555.78,1070.74z"/>
		</g>
		<g>
			<path class="st6" d="M441.09,1142.87c0.2,7.94,48.22,11.09,107.6,9.24s106.84-10.06,106.64-18.01
				c-0.2-7.94-47.99-12.6-107.37-10.75S440.89,1134.93,441.09,1142.87z"/>
		</g>
		<g>
			<path class="st5" d="M455.63,918.06c0,0,10.5-41.62,87.98-42.04C655.34,875.41,645,978.08,655.34,1134.1
				c0,0-110.06-15.56-214.3,6.81C441.04,1140.91,431.37,981.66,455.63,918.06z"/>
		</g>
		<g>
			<path class="st5" d="M427.03,912.1l50.6,28c0,0,110.8,10.06,140.22,5.22c29.41-4.85,37.48-26.44,37.48-26.44
				s-31.33-32.41-84.58-41.07c-5-0.82-10.19-1.42-15.57-1.77c-9.03-0.58-18.08-0.46-26.92,0.54
				C460.78,884.17,427.03,912.1,427.03,912.1z"/>
		</g>
		<g>
			<path class="st7" d="M645.98,1140.52c0,0-64.35-18.93-197.61,7.05l-1.03,19.17l195.35,6.9L645.98,1140.52z"/>
		</g>
		<g>
			<g>
				<path class="st5" d="M417.34,1140.91c4.66-51.29,42.58-185.53,47-192.88c3.56-5.91-2.81-18.91-12.86-25.1
					c-9.43-5.81-21.62-13.22-24.45-10.84c-39.83,33.58-74.1,156.28-63.3,224.27L417.34,1140.91z"/>
			</g>
		</g>
		<g>
			<path class="st4" d="M518.09,874.99c6.7,10.81,21.16,11.26,32.96,7.75c9.49-2.82,8.19-2.91,7.14-4.51
				c-2.59-3.96-4.99-5.14-4.63-9.28l0.47-5.42l0.06-0.67l0.61-7.06l1.05-12.18l2.77-32.04l-14.03,30.77l-2.39,5.24l-8.19,17.99
				C531.27,871.38,518.15,874.99,518.09,874.99z"/>
		</g>
		<g>
			<path class="st6" d="M540.3,852.23c0,0,3.77,8.53,13.73,11.31l0.06-0.67l0.61-7.06C549.28,854.58,540.3,852.23,540.3,852.23z"/>
		</g>
		<g>
			<path class="st8" d="M603.19,1067.98c0,0-3.23,29.67-24.32,45.72c0,0-13.12-8.58-22.61-22.61c-4.64-6.56-8.38-14.33-9.59-23.11
				c-0.5-3.94-0.6-11.2-0.4-20.59c0.3-7.57,0.81-16.55,1.31-26.34c0.91-17.16,2.22-36.64,3.13-55.01
				c0.5-10.09,0.91-19.88,1.11-28.66c0.4-18.67-0.1-33.31-2.42-38.45l10.09-3.13c0,0,4.34,11.2,10.29,28.26
				c2.22,6.56,4.74,13.93,7.37,21.8c4.04,12.62,8.38,26.65,12.31,40.77c2.12,7.77,4.24,15.64,5.96,23.31
				c3.73,15.85,6.56,30.99,7.47,43.7C603.39,1058.9,603.5,1063.64,603.19,1067.98z"/>
		</g>
		<g>
			
				<ellipse transform="matrix(0.0557 -0.9984 0.9984 0.0557 -767.0951 1464.4824)" class="st6" cx="390.69" cy="1137.78" rx="13.46" ry="26.99"/>
		</g>
		<g>
			<path class="st6" d="M655.99,1134.15l-1.3-0.12c0.1-1.1,9.04-111.19-22.84-179.28l1.18-0.56
				C665.06,1022.61,656.08,1133.05,655.99,1134.15z"/>
		</g>
		<g>
			<path class="st6" d="M439.77,1035.09l-1.27-0.29c8.5-34.69,26.12-59.37,26.3-59.62l1.06,0.77
				C465.68,976.17,448.2,1000.68,439.77,1035.09z"/>
		</g>
		<g>
			<path class="st6" d="M582.39,799.08c0,0,2.3,7.75,0.6,17.62c-1.71,9.87-12.49-13.88-12.49-13.88L582.39,799.08z"/>
		</g>
		<g>
			
				<ellipse transform="matrix(0.9865 -0.1637 0.1637 0.9865 -127.3989 102.1072)" class="st4" cx="555.94" cy="824.18" rx="28.71" ry="34.62"/>
		</g>
		<g>
			<path class="st6" d="M526.57,819l13.84-1.91c3.04-0.42,5.78-2.16,7.35-4.8c2.69-4.55,6.04-6.95,19.02-6.91
				c16.43,0.06,26.93-10.09,28.41-18.74c1.51-8.82-7.09-14.48-15.19-10.02c-8.1,4.46-4.91-5.91-12.87-6.73
				c-14.88-1.53-17.27,9.98-29.4,10.02c-15.91,0.05-43.98,13.1-29.53,40.63L526.57,819z"/>
		</g>
		<g>
			<g>
				<path class="st9" d="M559.68,821.35c0.15-0.1,0.25-0.26,0.25-0.45c0.02-0.32-0.23-0.59-0.55-0.61
					c-0.19-0.01-4.55-0.64-6.58,4.04c-0.13,0.3,0,0.64,0.29,0.77c0.29,0.13,0.58-0.03,0.77-0.29c1.94-2.57,5.3-3.37,5.46-3.36
					C559.45,821.46,559.58,821.42,559.68,821.35z"/>
			</g>
		</g>
		<g>
			<path class="st9" d="M557.41,828.9c0.41,1.33,1.52,2.16,2.49,1.86c0.96-0.3,1.41-1.62,1-2.94c-0.41-1.33-1.52-2.16-2.49-1.86
				C557.44,826.26,557,827.58,557.41,828.9z"/>
		</g>
		<g>
			<g>
				<path class="st9" d="M579.84,817.72c0.13-0.04,0.23-0.16,0.26-0.34c0.06-0.29-0.1-0.62-0.35-0.74c-0.15-0.07-3.5-2.06-5.75,1.61
					c-0.14,0.23-0.09,0.59,0.12,0.81c0.21,0.22,0.46,0.16,0.65-0.02c1.89-1.75,4.65-1.4,4.78-1.35
					C579.65,817.75,579.76,817.75,579.84,817.72z"/>
			</g>
		</g>
		<g>
			<path class="st9" d="M575.56,824.46c0.05,1.39,0.91,2.48,1.91,2.45c1.01-0.04,1.78-1.19,1.73-2.58
				c-0.05-1.39-0.91-2.48-1.91-2.45C576.28,821.91,575.51,823.07,575.56,824.46z"/>
		</g>
		<g>
			<path class="st6" d="M508.2,820.54c0,0,10.29,20.38,23.95,21.43c0,0-11.53-15.4,11.32-25.8
				C543.47,816.17,522.07,813.54,508.2,820.54z"/>
		</g>
		<g>
			<path class="st4" d="M527.76,831.32c2.97,1.75,6.65,1.02,8.22-1.64c1.57-2.66,0.43-6.23-2.55-7.98
				c-2.97-1.75-6.65-1.02-8.22,1.64C523.65,825.99,524.79,829.56,527.76,831.32z"/>
		</g>
		<g>
			<path class="st0" d="M571.27,800.62l-0.12-0.38c0.17-0.06,17.45-5.82,17.87-14.83c0.13-2.55-0.36-4.21-1.47-5.11
				c-1.79-1.43-4.9-0.6-7.66,0.16c-0.43,0.1-0.84,0.22-1.24,0.32l-0.1-0.38c0.4-0.1,0.82-0.21,1.24-0.32
				c2.84-0.77,6.08-1.65,8.01-0.09c1.22,0.99,1.75,2.75,1.62,5.45C588.98,794.72,571.99,800.39,571.27,800.62z"/>
		</g>
		<g>
			<path class="st0" d="M535,783.58c-1.27,0-2.59-0.06-3.98-0.21l0.04-0.38c1.37,0.13,2.69,0.19,3.94,0.19
				c14.39,0,21.07-8.34,21.14-8.42l0.31,0.24C556.38,775.1,549.59,783.58,535,783.58z"/>
		</g>
		<g>
			<path class="st6" d="M533.1,1286.92l-0.82-0.18c0.19-0.93,19.08-92.73,23.15-107.14c4.13-14.64,19.13-18.04,19.28-18.07
				l0.18,0.82c-0.15,0.03-14.65,3.33-18.65,17.48C552.17,1194.2,533.29,1285.99,533.1,1286.92z"/>
		</g>
		<g>
			<path class="st8" d="M543.8,882.94c0,0,13.61-4.21,17.23-0.94c3.62,3.27,0.96,18.22-5.31,19.55
				C549.45,902.87,537.6,886.54,543.8,882.94z"/>
		</g>
		<g>
			<path class="st10" d="M551.79,879.41c0,0-17.77-6.28-21.23-12.56s-21.86,8.23-21.54,12.56c0.32,4.33,33.45,28.37,35.62,25.34
				C546.8,901.71,556.13,883.52,551.79,879.41z"/>
		</g>
		<g>
			<path class="st10" d="M551.79,879.41c0,0,2.65-6.59,1.38-10.17c0,0-0.84-3.15,1.86-2.93c2.71,0.22,17.43,10.5,18.73,13.64
				c1.3,3.14,1.52,17.87-3.25,18.95c-4.76,1.08-16.25-14.74-17.6-16.3C551.57,881.03,551.79,879.41,551.79,879.41z"/>
		</g>
		<g>
			<path class="st6" d="M555.62,901.87c-3.98,0-7.39-3.52-7.54-3.68l0.47-0.44c0.03,0.03,3.37,3.48,7.07,3.48c0.03,0,0.06,0,0.09,0
				c3.65-0.07,5.83-7.92,5.85-8.01l0.63,0.18c-0.1,0.34-2.34,8.41-6.47,8.48C555.68,901.87,555.65,901.87,555.62,901.87z"/>
		</g>
		<g>
			<path class="st6" d="M573.58,841.66c-0.11,0-0.23-0.03-0.33-0.1c-0.07-0.03-8.01-4.98-13.95-0.25c-0.26,0.22-0.65,0.18-0.87-0.1
				c-0.21-0.27-0.17-0.65,0.1-0.87c6.59-5.27,15.28,0.12,15.38,0.19c0.29,0.18,0.38,0.56,0.19,0.84
				C573.98,841.55,573.78,841.66,573.58,841.66z"/>
		</g>
		<g>
			<g>
				<g>
					<path class="st6" d="M410.77,1205.8l7.17-1.33l-5.42-29.3c-1.53-7.48-8.16-12.88-15.77-12.89l-24.1-0.05
						c-6.94-0.01-13.1,4.36-15.34,10.89l-0.04,0.13l-9.96,32.99l6.98,2.11l9.94-32.92c1.25-3.55,4.62-5.92,8.41-5.91l24.1,0.05
						c4.17,0.01,7.81,2.95,8.63,7L410.77,1205.8z"/>
				</g>
			</g>
			<g>
				<path class="st8" d="M338.18,1295.09l111.51,10.28c7.86,0.72,14.82-4.98,15.59-12.77l7.81-78.94c0.82-8.27-5.63-15.49-14-15.69
					l-135.15-3.13c-9.29-0.21-16.32,8.26-14.33,17.28l15.82,71.78C326.78,1289.98,331.94,1294.51,338.18,1295.09z"/>
			</g>
			<g>
				<g>
					<polygon class="st6" points="388.6,1251.78 311.88,1224.45 312.45,1222.85 388.67,1250.01 471.34,1228.49 471.76,1230.12 					
						"/>
				</g>
			</g>
			<g>
				<g>
					<path class="st6" d="M387.33,1258.06L387.33,1258.06c2.57-0.01,4.66-2.09,4.65-4.64l-0.02-4.48c-0.01-2.55-2.12-4.63-4.69-4.63
						l0,0c-2.57,0.01-4.66,2.09-4.65,4.64l0.02,4.48C382.65,1255.99,384.76,1258.07,387.33,1258.06z"/>
				</g>
			</g>
		</g>
		<g>
			<path class="st4" d="M416.29,1162.19c-1.64-3.16-3.46-8.41-5.28-13.43c-1.46-4.04-4.51-12.24-5.62-14.89
				c-2.63-6.3-19.08-7.01-24.77-3.5c-5.6,3.45-7.61,12.66-11.38,25.27c-0.32,0.67-0.59,1.43-0.78,2.31
				c-1.33,6.12-4.35,14.55-0.61,17.79c4.08,3.53,6.62-2.55,7.65-5.89c-0.7,3.06-1.52,8.94,1.48,12.27c3.16,3.5,6.79-6.07,8.36-10.94
				c0.01,0,0.03,0.01,0.04,0.01c-1.12,4.37-2.67,12.84,1.32,15.14c4.72,2.72,8.36-10.3,9.33-13.28c0.11,0.01,0.23,0.02,0.35,0.02
				c2.76,18.53,10.15,9.17,11.82-5.1c2.7,2.97,8.84,8.29,10.82,6.91C421.33,1173.29,417.58,1164.66,416.29,1162.19z"/>
		</g>
	</g>
	<g>
		<g>
			<path class="st4" d="M1049.56,1101.63c-3.56,5.7-8.07,18.55-11.52,24.32c-1.5,2.5-5.96,11.26-3.7,13.11
				c1.96,1.6,8.76-3.64,11.71-6.53c1.2,19.29,11.47,46.91,11.84,6.31c0.02,0,0.04,0,0.07,0c0.34,4.11,2.21,26.97,7.43,24.38
				c4.61-2.29,3.94-18.71,3.46-25.48c0.06-0.01,0.12-0.02,0.18-0.03c1.08,6.84,4.1,23.27,7.78,19.65
				c4.63-4.54,4.32-22.56,4.32-22.56s0.89,23.01,6.87,18.44c3.37-2.58,1.5-15.7,0.22-23.86v0c0,0,0,0,0,0
				c-0.27-1.71-0.51-3.21-0.68-4.33c-0.14-0.94-0.36-1.75-0.64-2.48c-2.99-13.49-7.15-21.68-7.15-21.68s-3.18-10.47-15.07-9.54
				C1057.11,1091.94,1051.11,1099.16,1049.56,1101.63z"/>
		</g>
		<g>
			<g>
				<path class="st5" d="M1040.58,1104.39c-43.04-28.28,3.19-115.82-14.7-176.24c-4.14-14-5.93-19.28-9.51-27.07
					c-2.88-6.27,4.89-18.48,15.56-23.53c10.01-4.74,34.04-1.62,35.94,1.55c28.98,48.36,38.34,127.74,23.91,229.08
					C1091.77,1108.19,1059.05,1116.53,1040.58,1104.39z"/>
			</g>
		</g>
		<g>
			<path class="st6" d="M976.63,1471.09c0,0,0.37,14.58,10.23,18.7c9.87,4.11,38.46,7.83,27.78,17.2c-6.13,5.38-35.02,1.9-43.18,1.9
				c-8.16,0-15.82,3.55-21.88-1.9c-6.67-6.01,0-35.9,0-35.9s7.04,3.67,13.37,3.5C972.07,1474.36,976.63,1471.09,976.63,1471.09z"/>
		</g>
		<g>
			<path class="st8" d="M1061.76,1030.98c0,0,1.97,65.81-19.03,192.07c-15.16,91.15-33.06,182.99-41.85,227.03
				c-3.14,15.75-16.39,27.27-32.09,27.9l-8.44,0.34c-16.98,0.68-30.75-13.9-29.51-31.24l21.3-297.9l5.25-98.05L1061.76,1030.98z"/>
		</g>
		<g>
			<path class="st6" d="M883.17,1471.09c0,0,0.37,14.58,10.23,18.7c9.87,4.11,38.46,7.83,27.78,17.2c-6.13,5.38-35.02,1.9-43.18,1.9
				c-8.16,0-15.82,3.55-21.88-1.9c-6.67-6.01,0-35.9,0-35.9s7.04,3.67,13.37,3.5C878.61,1474.36,883.17,1471.09,883.17,1471.09z"/>
		</g>
		<g>
			<path class="st8" d="M968.3,1030.98c0,0,1.97,65.81-19.03,192.07c-15.16,91.15-33.06,182.99-41.85,227.03
				c-3.14,15.75-16.39,27.27-32.09,27.9l-8.44,0.34c-16.98,0.68-30.75-13.9-29.51-31.24l21.3-297.9l5.25-98.05L968.3,1030.98z"/>
		</g>
		<g>
			<path class="st6" d="M853.62,1103.11c0.2,7.94,48.22,11.09,107.6,9.24c59.39-1.85,106.84-10.06,106.64-18.01
				s-47.99-12.6-107.37-10.75C901.1,1085.45,853.42,1095.17,853.62,1103.11z"/>
		</g>
		<g>
			<path class="st5" d="M868.16,878.31c0,0,10.5-41.62,87.98-42.04c111.73-0.61,101.39,102.06,111.73,258.08
				c0,0-110.06-15.56-214.3,6.81C853.57,1101.16,843.9,941.9,868.16,878.31z"/>
		</g>
		<g>
			<path class="st5" d="M839.56,872.34l50.6,28c0,0,110.8,10.06,140.22,5.22c29.41-4.85,37.48-26.44,37.48-26.44
				s-31.33-32.41-84.58-41.07c-5-0.82-10.19-1.42-15.57-1.77c-9.03-0.58-18.08-0.46-26.92,0.54
				C873.31,844.41,839.56,872.34,839.56,872.34z"/>
		</g>
		<g>
			<path class="st8" d="M1058.51,1100.77c0,0-64.35-18.93-197.61,7.05l-1.03,19.17l195.35,6.9L1058.51,1100.77z"/>
		</g>
		<g>
			<g>
				<path class="st5" d="M829.86,1101.16c4.66-51.29,42.58-185.53,47-192.88c3.56-5.91-2.81-18.91-12.86-25.1
					c-9.43-5.81-21.62-13.22-24.45-10.84c-39.83,33.58-74.1,156.28-63.3,224.27L829.86,1101.16z"/>
			</g>
		</g>
		<g>
			<path class="st4" d="M930.62,835.23c6.7,10.81,21.16,11.26,32.96,7.75c9.49-2.82,8.19-2.91,7.14-4.51
				c-2.59-3.96-4.99-5.14-4.63-9.28l0.47-5.42l0.06-0.67l0.61-7.06l1.05-12.18l2.77-32.04l-14.03,30.77l-2.39,5.24l-8.19,17.99
				C943.8,831.63,930.68,835.23,930.62,835.23z"/>
		</g>
		<g>
			<path class="st6" d="M952.82,812.48c0,0,3.77,8.53,13.73,11.31l0.06-0.67l0.61-7.06C961.81,814.82,952.82,812.48,952.82,812.48z"
				/>
		</g>
		<g>
			<path class="st7" d="M1015.72,1028.23c0,0-3.23,29.67-24.32,45.72c0,0-13.12-8.58-22.61-22.61c-4.64-6.56-8.38-14.33-9.59-23.11
				c-0.5-3.94-0.6-11.2-0.4-20.59c0.3-7.57,0.81-16.55,1.31-26.34c0.91-17.16,2.22-36.64,3.13-55.01
				c0.5-10.09,0.91-19.88,1.11-28.66c0.4-18.67-0.1-33.31-2.42-38.45l10.09-3.13c0,0,4.34,11.2,10.29,28.26
				c2.22,6.56,4.74,13.93,7.37,21.8c4.04,12.62,8.38,26.65,12.31,40.77c2.12,7.77,4.24,15.64,5.96,23.31
				c3.73,15.85,6.56,30.99,7.47,43.7C1015.92,1019.15,1016.02,1023.89,1015.72,1028.23z"/>
		</g>
		<g>
			<path class="st6" d="M776.26,1096.61c-0.32,7.43,11.49,14.08,26.38,14.86c14.88,0.78,27.21-4.6,27.52-12.03
				c0.32-7.43-11.49-14.08-26.38-14.86C788.9,1083.8,776.58,1089.19,776.26,1096.61z"/>
		</g>
		<g>
			<path class="st6" d="M1068.51,1094.4l-1.3-0.12c0.1-1.1,9.04-111.19-22.84-179.28l1.18-0.56
				C1077.59,982.86,1068.61,1093.3,1068.51,1094.4z"/>
		</g>
		<g>
			<path class="st6" d="M852.3,995.34l-1.27-0.29c8.5-34.7,26.12-59.37,26.3-59.62l1.06,0.77
				C878.21,936.42,860.73,960.91,852.3,995.34z"/>
		</g>
		<g>
			<path class="st6" d="M994.92,759.32c0,0,2.3,7.75,0.6,17.62c-1.71,9.87-12.49-13.88-12.49-13.88L994.92,759.32z"/>
		</g>
		<g>
			
				<ellipse transform="matrix(0.9865 -0.1637 0.1637 0.9865 -115.3381 169.1069)" class="st4" cx="968.47" cy="784.43" rx="28.71" ry="34.62"/>
		</g>
		<g>
			<g>
				<path class="st9" d="M972.21,781.6c0.15-0.1,0.25-0.26,0.25-0.45c0.02-0.32-0.23-0.59-0.55-0.61c-0.19-0.01-4.55-0.64-6.58,4.04
					c-0.13,0.3,0,0.64,0.29,0.77c0.29,0.13,0.58-0.03,0.77-0.29c1.94-2.57,5.3-3.37,5.46-3.36
					C971.98,781.7,972.1,781.67,972.21,781.6z"/>
			</g>
		</g>
		<g>
			<path class="st9" d="M969.94,789.15c0.41,1.33,1.52,2.16,2.49,1.86c0.96-0.3,1.41-1.62,1-2.94c-0.41-1.33-1.52-2.16-2.49-1.86
				C969.97,786.5,969.53,787.82,969.94,789.15z"/>
		</g>
		<g>
			<g>
				<path class="st9" d="M992.37,777.96c0.13-0.04,0.23-0.16,0.26-0.34c0.06-0.29-0.1-0.62-0.35-0.74c-0.15-0.07-3.5-2.06-5.75,1.61
					c-0.14,0.23-0.09,0.59,0.12,0.81c0.21,0.22,0.46,0.16,0.65-0.02c1.89-1.75,4.65-1.4,4.77-1.35
					C992.18,777.99,992.28,777.99,992.37,777.96z"/>
			</g>
		</g>
		<g>
			<path class="st9" d="M988.09,784.7c0.05,1.39,0.91,2.48,1.91,2.45c1.01-0.04,1.78-1.19,1.73-2.58c-0.05-1.39-0.91-2.48-1.91-2.45
				C988.81,782.16,988.04,783.31,988.09,784.7z"/>
		</g>
		<g>
			<path class="st6" d="M920.73,780.79c0,0,10.29,20.38,23.95,21.43c0,0-9.18-21.01,5.59-31.09
				C950.26,771.13,934.6,773.79,920.73,780.79z"/>
		</g>
		<g>
			<path class="st4" d="M940.29,791.56c2.97,1.75,6.65,1.02,8.22-1.64c1.57-2.66,0.43-6.23-2.55-7.98
				c-2.97-1.75-6.65-1.02-8.22,1.64C936.18,786.23,937.32,789.81,940.29,791.56z"/>
		</g>
		<g>
			<path class="st6" d="M945.63,1247.17l-0.82-0.18c0.19-0.93,19.08-92.73,23.15-107.15c4.13-14.63,19.13-18.03,19.28-18.06
				l0.18,0.82c-0.15,0.03-14.66,3.33-18.65,17.47C964.7,1154.45,945.82,1246.24,945.63,1247.17z"/>
		</g>
		<g>
			<path class="st7" d="M956.33,843.18c0,0,13.61-4.21,17.23-0.94c3.62,3.27,0.96,18.22-5.31,19.55
				C961.98,863.11,950.13,846.79,956.33,843.18z"/>
		</g>
		<g>
			<path class="st10" d="M964.32,839.65c0,0-17.77-6.28-21.23-12.56s-21.86,8.23-21.54,12.56c0.32,4.33,33.45,28.37,35.62,25.34
				C959.33,861.96,968.66,843.77,964.32,839.65z"/>
		</g>
		<g>
			<path class="st10" d="M964.32,839.65c0,0,2.65-6.59,1.38-10.17c0,0-0.84-3.15,1.86-2.93c2.71,0.22,17.43,10.5,18.73,13.64
				c1.3,3.14,1.52,17.87-3.25,18.95c-4.76,1.08-16.25-14.74-17.6-16.3C964.09,841.28,964.32,839.65,964.32,839.65z"/>
		</g>
		<g>
			<path class="st6" d="M968.15,862.11c-3.98,0-7.39-3.52-7.54-3.68l0.47-0.44c0.03,0.03,3.37,3.48,7.07,3.48c0.03,0,0.06,0,0.09,0
				c3.65-0.07,5.83-7.94,5.85-8.03l0.63,0.18c-0.1,0.34-2.35,8.42-6.47,8.5C968.21,862.11,968.18,862.11,968.15,862.11z"/>
		</g>
		<g>
			<path class="st6" d="M986.11,801.89c-0.11,0-0.23-0.03-0.33-0.1c-0.08-0.04-8-4.96-13.95-0.24c-0.26,0.24-0.65,0.19-0.87-0.1
				c-0.21-0.27-0.17-0.65,0.1-0.87c6.58-5.26,15.29,0.1,15.38,0.18c0.29,0.18,0.38,0.56,0.19,0.84
				C986.51,801.79,986.31,801.89,986.11,801.89z"/>
		</g>
		<g>
			<g>
				<g>
					<path class="st6" d="M823.3,1166.05l7.17-1.33l-5.42-29.3c-1.53-7.48-8.16-12.88-15.77-12.89l-24.1-0.05
						c-6.94-0.01-13.1,4.36-15.34,10.89l-0.04,0.13l-9.96,32.99l6.98,2.11l9.94-32.92c1.25-3.55,4.62-5.92,8.41-5.91l24.1,0.05
						c4.17,0.01,7.81,2.95,8.63,7L823.3,1166.05z"/>
				</g>
			</g>
			<g>
				<path class="st7" d="M750.71,1255.33l111.51,10.28c7.86,0.72,14.82-4.98,15.59-12.77l7.81-78.94c0.82-8.27-5.63-15.49-14-15.69
					l-135.15-3.13c-9.29-0.22-16.32,8.26-14.33,17.28l15.82,71.78C739.31,1250.23,744.47,1254.75,750.71,1255.33z"/>
			</g>
			<g>
				<g>
					<polygon class="st6" points="801.12,1212.02 724.41,1184.69 724.97,1183.1 801.2,1210.26 883.87,1188.73 884.29,1190.37 					
						"/>
				</g>
			</g>
			<g>
				<g>
					<path class="st6" d="M799.86,1218.31L799.86,1218.31c2.57,0,4.66-2.09,4.65-4.64l-0.02-4.48c-0.01-2.55-2.12-4.63-4.69-4.63
						l0,0c-2.57,0.01-4.66,2.09-4.65,4.64l0.02,4.48C795.18,1216.23,797.29,1218.31,799.86,1218.31z"/>
				</g>
			</g>
		</g>
		<g>
			<path class="st4" d="M828.82,1122.43c-1.64-3.16-3.46-8.41-5.28-13.43c-1.46-4.04-4.51-12.24-5.62-14.89
				c-2.63-6.3-19.08-7.01-24.77-3.5c-5.6,3.45-7.61,12.66-11.38,25.27c-0.32,0.67-0.59,1.43-0.78,2.31
				c-1.33,6.12-4.35,14.55-0.61,17.79c4.08,3.53,6.62-2.55,7.65-5.89c-0.7,3.06-1.52,8.94,1.48,12.27c3.16,3.5,6.79-6.07,8.36-10.94
				c0.01,0,0.03,0.01,0.04,0.01c-1.12,4.37-2.67,12.84,1.32,15.14c4.72,2.72,8.36-10.3,9.33-13.28c0.11,0.01,0.23,0.02,0.35,0.02
				c2.76,18.53,10.15,9.17,11.82-5.1c2.7,2.97,8.84,8.29,10.82,6.91C833.85,1133.53,830.1,1124.91,828.82,1122.43z"/>
		</g>
		<g>
			<path class="st6" d="M920.73,780.79c0,0-8.64-18.64,2.25-32.07c10.89-13.44,27.5-18.07,42.48-13.44
				c14.98,4.63,25.76,1.51,33.63,4.05c7.88,2.55,2.57,11.24-2.94,11.47c0,0,12.56,6.72,8.85,13.9c-3.71,7.18-12.28,7.88-23.17,4.63
				c-10.89-3.24-25.19-6.72-28.12-3.01s-1.22,12.01-7.75,15.62C939.43,785.55,920.73,780.79,920.73,780.79z"/>
		</g>
		<g>
			<path class="st6" d="M961.58,735.33c0,0,14.57,1.56,19.09,0c4.52-1.56,8.34,2.26,3.82,4.34
				C979.98,741.76,961.58,735.33,961.58,735.33z"/>
		</g>
	</g>
	<g>
		<g>
			<path class="st4" d="M2417.08,1171.22c3.51,5.62,7.97,18.31,11.37,24c1.48,2.47,5.88,11.11,3.65,12.94
				c-1.93,1.58-8.65-3.59-11.55-6.45c-1.19,19.03-11.31,46.28-11.69,6.23c-0.02,0-0.04,0-0.06,0c-0.33,4.06-2.18,26.62-7.33,24.06
				c-4.55-2.26-3.89-18.46-3.42-25.14c-0.06-0.01-0.12-0.02-0.18-0.03c-1.06,6.75-4.04,22.96-7.68,19.39
				c-4.57-4.48-4.26-22.26-4.26-22.26s-0.88,22.71-6.78,18.2c-3.32-2.54-1.48-15.49-0.22-23.54v0c0,0,0,0,0,0
				c0.27-1.69,0.51-3.16,0.67-4.28c0.13-0.92,0.35-1.73,0.63-2.45c2.95-13.31,7.05-21.39,7.05-21.39s3.14-10.33,14.87-9.41
				C2409.64,1161.67,2415.56,1168.79,2417.08,1171.22z"/>
		</g>
		<g>
			<g>
				<path class="st5" d="M2425.95,1173.95c42.47-27.9-3.15-114.28,14.5-173.9c4.09-13.81,5.85-19.03,9.39-26.71
					c2.84-6.19-4.82-18.23-15.35-23.21c-9.88-4.67-33.59-1.6-35.46,1.53c-28.59,47.71-37.83,126.05-23.59,226.04
					C2375.44,1177.7,2407.72,1185.93,2425.95,1173.95z"/>
			</g>
		</g>
		<g>
			<path class="st6" d="M2489.05,1535.78c0,0-0.36,14.39-10.1,18.45c-9.74,4.06-37.95,7.72-27.41,16.97
				c6.05,5.31,34.56,1.88,42.6,1.88c8.05,0,15.61,3.51,21.59-1.88c6.58-5.93,0-35.42,0-35.42s-6.95,3.62-13.19,3.46
				C2493.54,1539,2489.05,1535.78,2489.05,1535.78z"/>
		</g>
		<g>
			<path class="st7" d="M2405.04,1101.52c0,0-1.94,64.94,18.78,189.52c14.96,89.94,32.62,180.56,41.29,224.01
				c3.1,15.54,16.17,26.91,31.66,27.53l8.32,0.33c16.75,0.67,30.34-13.72,29.12-30.82l-21.02-293.94l-5.18-96.75L2405.04,1101.52z"
				/>
		</g>
		<g>
			<path class="st6" d="M2581.27,1535.78c0,0-0.36,14.39-10.1,18.45c-9.74,4.06-37.95,7.72-27.41,16.97
				c6.05,5.31,34.56,1.88,42.6,1.88c8.05,0,15.61,3.51,21.59-1.88c6.58-5.93,0-35.42,0-35.42s-6.95,3.62-13.19,3.46
				C2585.76,1539,2581.27,1535.78,2581.27,1535.78z"/>
		</g>
		<g>
			<path class="st7" d="M2497.26,1101.52c0,0-1.94,64.94,18.78,189.52c14.96,89.94,32.62,180.56,41.29,224.01
				c3.1,15.54,16.17,26.91,31.66,27.53l8.32,0.33c16.75,0.67,30.34-13.72,29.12-30.82l-21.02-293.94l-5.18-96.75L2497.26,1101.52z"
				/>
		</g>
		<g>
			<path class="st6" d="M2610.42,1172.69c-0.2,7.83-47.58,10.95-106.17,9.12c-58.6-1.83-105.42-9.93-105.22-17.77
				c0.2-7.83,47.35-12.43,105.95-10.61S2610.62,1164.85,2610.42,1172.69z"/>
		</g>
		<g>
			<path class="st5" d="M2596.08,950.87c0,0-10.36-41.07-86.81-41.48c-110.25-0.6-100.04,100.7-110.24,254.65
				c0,0,108.6-15.36,211.45,6.72C2610.47,1170.76,2620.02,1013.62,2596.08,950.87z"/>
		</g>
		<g>
			<path class="st5" d="M2624.29,944.98l-49.93,27.63c0,0-109.33,9.93-138.35,5.15c-29.02-4.78-36.99-26.09-36.99-26.09
				s30.91-31.98,83.45-40.52c4.94-0.81,10.06-1.4,15.36-1.75c8.91-0.57,17.84-0.45,26.56,0.53
				C2590.99,917.42,2624.29,944.98,2624.29,944.98z"/>
		</g>
		<g>
			<path class="st7" d="M2408.25,1170.38c0,0,63.49-18.68,194.98,6.96l1.01,18.92l-192.76,6.81L2408.25,1170.38z"/>
		</g>
		<g>
			<g>
				<path class="st5" d="M2633.86,1170.76c-4.6-50.6-42.02-183.07-46.38-190.32c-3.51-5.83,2.77-18.65,12.69-24.77
					c9.3-5.74,21.33-13.04,24.12-10.69c39.3,33.13,73.12,154.21,62.45,221.29L2633.86,1170.76z"/>
			</g>
		</g>
		<g>
			<path class="st4" d="M2534.45,908.37c-6.61,10.67-20.88,11.11-32.52,7.65c-9.36-2.78-8.08-2.87-7.04-4.45
				c2.55-3.91,4.92-5.08,4.57-9.15l-0.46-5.34l-0.06-0.66l-0.61-6.97l-1.03-12.02l-2.74-31.61l13.85,30.36l2.35,5.17l8.09,17.75
				C2521.44,904.81,2534.38,908.36,2534.45,908.37z"/>
		</g>
		<g>
			<path class="st6" d="M2512.54,885.91c0,0-3.72,8.41-13.55,11.16l-0.06-0.66l-0.61-6.97
				C2503.67,888.23,2512.54,885.91,2512.54,885.91z"/>
		</g>
		<g>
			<path class="st7" d="M2450.47,1098.8c0,0,3.19,29.28,24,45.11c0,0,12.95-8.47,22.31-22.31c4.58-6.47,8.27-14.14,9.46-22.81
				c0.5-3.88,0.6-11.05,0.4-20.32c-0.3-7.47-0.8-16.33-1.29-25.99c-0.9-16.93-2.19-36.15-3.09-54.28
				c-0.5-9.96-0.89-19.62-1.09-28.28c-0.4-18.42,0.1-32.86,2.39-37.94l-9.96-3.09c0,0-4.28,11.06-10.16,27.88
				c-2.19,6.47-4.68,13.74-7.27,21.51c-3.98,12.45-8.27,26.29-12.15,40.23c-2.09,7.67-4.18,15.44-5.88,23.01
				c-3.68,15.64-6.47,30.57-7.37,43.12C2450.28,1089.84,2450.18,1094.52,2450.47,1098.8z"/>
		</g>
		<g>
			
				<ellipse transform="matrix(0.9984 -0.0557 0.0557 0.9984 -60.9192 150.0091)" class="st6" cx="2660.16" cy="1167.67" rx="26.63" ry="13.28"/>
		</g>
		<g>
			<path class="st6" d="M2398.38,1164.1c-0.09-1.09-8.96-110.07,22.65-177.55l1.16,0.53c-31.46,67.19-22.62,175.82-22.53,176.91
				L2398.38,1164.1z"/>
		</g>
		<g>
			<path class="st6" d="M2611.72,1066.34c-8.31-33.96-25.57-58.12-25.75-58.37l1.05-0.74c0.17,0.24,17.57,24.58,25.95,58.81
				L2611.72,1066.34z"/>
		</g>
		<g>
			<path class="st6" d="M2471,833.47c0,0-2.27,7.64-0.59,17.38c1.69,9.74,12.33-13.7,12.33-13.7L2471,833.47z"/>
		</g>
		<g>
			
				<ellipse transform="matrix(0.1637 -0.9865 0.9865 0.1637 1241.7097 3181.1775)" class="st4" cx="2497.09" cy="858.24" rx="34.16" ry="28.33"/>
		</g>
		<g>
			<g>
				<path class="st9" d="M2493.41,855.45c-0.14-0.1-0.24-0.26-0.25-0.45c-0.02-0.32,0.23-0.59,0.54-0.6
					c0.19-0.01,4.49-0.63,6.49,3.99c0.13,0.29,0,0.63-0.28,0.76c-0.29,0.13-0.57-0.03-0.76-0.28c-1.92-2.54-5.23-3.33-5.39-3.32
					C2493.63,855.55,2493.51,855.51,2493.41,855.45z"/>
			</g>
		</g>
		<g>
			<path class="st9" d="M2495.65,862.89c-0.41,1.31-1.5,2.13-2.45,1.84c-0.95-0.29-1.39-1.59-0.99-2.9c0.41-1.31,1.5-2.13,2.45-1.84
				C2495.61,860.28,2496.06,861.58,2495.65,862.89z"/>
		</g>
		<g>
			<g>
				<path class="st9" d="M2473.51,851.86c-0.13-0.04-0.23-0.16-0.26-0.33c-0.06-0.29,0.1-0.61,0.34-0.73
					c0.15-0.07,3.45-2.03,5.67,1.59c0.14,0.23,0.09,0.58-0.12,0.79c-0.21,0.21-0.45,0.16-0.64-0.02c-1.87-1.72-4.59-1.38-4.71-1.33
					C2473.7,851.89,2473.6,851.89,2473.51,851.86z"/>
			</g>
		</g>
		<g>
			<path class="st9" d="M2477.74,858.51c-0.05,1.37-0.89,2.45-1.89,2.42c-0.99-0.04-1.76-1.17-1.71-2.54
				c0.05-1.37,0.89-2.45,1.89-2.42C2477.03,856,2477.79,857.14,2477.74,858.51z"/>
		</g>
		<g>
			<path class="st6" d="M2544.21,854.64c0,0-10.16,20.11-23.63,21.15c0,0,9.06-20.73-5.51-30.68
				C2515.06,845.11,2530.52,847.74,2544.21,854.64z"/>
		</g>
		<g>
			
				<ellipse transform="matrix(0.8614 -0.508 0.508 0.8614 -87.5067 1400.3942)" class="st4" cx="2522.1" cy="860.53" rx="6.16" ry="5.51"/>
		</g>
		<g>
			<path class="st6" d="M2519.64,1314.83c-0.19-0.91-18.82-91.48-22.82-105.66c-3.94-13.95-18.26-17.2-18.4-17.25l0.18-0.8
				c0.15,0.03,14.94,3.37,19.02,17.81c4.01,14.21,22.65,104.81,22.84,105.72L2519.64,1314.83z"/>
		</g>
		<g>
			<path class="st7" d="M2509.08,916.21c0,0-13.43-4.15-17-0.93c-3.57,3.22-0.94,17.98,5.24,19.29
				C2503.5,935.88,2515.2,919.77,2509.08,916.21z"/>
		</g>
		<g>
			<path class="st10" d="M2501.19,912.73c0,0,17.53-6.2,20.95-12.39c3.42-6.2,21.57,8.12,21.26,12.39
				c-0.32,4.27-33.01,27.99-35.14,25C2506.12,934.74,2496.91,916.79,2501.19,912.73z"/>
		</g>
		<g>
			<path class="st10" d="M2501.19,912.73c0,0-2.62-6.51-1.36-10.04c0,0,0.83-3.1-1.84-2.89c-2.67,0.21-17.2,10.36-18.48,13.46
				c-1.28,3.1-1.5,17.63,3.21,18.7c4.7,1.07,16.03-14.54,17.36-16.08S2501.19,912.73,2501.19,912.73z"/>
		</g>
		<g>
			<path class="st6" d="M2497.41,934.89c-0.04,0-0.07,0-0.1,0c-4.07-0.06-6.28-8.04-6.38-8.38l0.62-0.18
				c0.02,0.09,2.17,7.87,5.77,7.91c0.03,0,0.06,0,0.09,0c3.65,0,6.94-3.4,6.98-3.43l0.46,0.44
				C2504.71,931.4,2501.35,934.89,2497.41,934.89z"/>
		</g>
		<g>
			<path class="st6" d="M2479.69,875.47c-0.2,0-0.4-0.09-0.52-0.28c-0.18-0.28-0.1-0.66,0.19-0.84c0.07-0.04,8.63-5.41,15.18-0.18
				c0.26,0.21,0.3,0.59,0.1,0.85c-0.21,0.27-0.57,0.31-0.86,0.09c-5.85-4.62-13.68,0.22-13.76,0.27
				C2479.92,875.44,2479.8,875.47,2479.69,875.47z"/>
		</g>
		<g>
			<g>
				<g>
					<path class="st6" d="M2640.34,1234.79l-7.07-1.31l5.35-28.91c1.51-7.39,8.05-12.71,15.56-12.72l23.78-0.05
						c6.85-0.01,12.92,4.31,15.14,10.75l0.04,0.13l9.83,32.55l-6.88,2.08l-9.81-32.48c-1.23-3.5-4.56-5.84-8.3-5.83l-23.78,0.05
						c-4.12,0.01-7.7,2.91-8.52,6.91L2640.34,1234.79z"/>
				</g>
			</g>
			<g>
				<path class="st8" d="M2711.96,1322.88l-110.03,10.15c-7.75,0.71-14.62-4.91-15.38-12.6l-7.71-77.89
					c-0.81-8.16,5.55-15.29,13.81-15.48l133.35-3.09c9.17-0.21,16.1,8.15,14.14,17.05l-15.61,70.83
					C2723.21,1317.85,2718.12,1322.31,2711.96,1322.88z"/>
			</g>
			<g>
				<g>
					<polygon class="st6" points="2662.22,1280.15 2737.92,1253.18 2737.36,1251.61 2662.14,1278.41 2580.58,1257.17 
						2580.16,1258.78 					"/>
				</g>
			</g>
			<g>
				<g>
					<path class="st6" d="M2663.47,1286.35L2663.47,1286.35c-2.53-0.01-4.6-2.07-4.59-4.58l0.02-4.42c0.01-2.52,2.09-4.57,4.63-4.56
						l0,0c2.53,0,4.6,2.07,4.59,4.58l-0.02,4.42C2668.09,1284.3,2666,1286.36,2663.47,1286.35z"/>
				</g>
			</g>
		</g>
		<g>
			<path class="st4" d="M2634.89,1191.75c1.62-3.12,3.41-8.3,5.21-13.25c1.45-3.99,4.45-12.08,5.55-14.69
				c2.59-6.21,18.83-6.92,24.44-3.46c5.52,3.41,7.51,12.49,11.22,24.93c0.32,0.66,0.58,1.41,0.77,2.28
				c1.31,6.04,4.29,14.36,0.6,17.56c-4.03,3.49-6.53-2.52-7.55-5.81c0.69,3.02,1.5,8.83-1.46,12.11c-3.12,3.45-6.7-5.99-8.25-10.79
				c-0.01,0-0.03,0.01-0.04,0.01c1.1,4.32,2.64,12.67-1.3,14.94c-4.66,2.69-8.25-10.16-9.21-13.1c-0.11,0.01-0.23,0.02-0.34,0.02
				c-2.72,18.29-10.01,9.05-11.66-5.03c-2.67,2.93-8.72,8.18-10.67,6.82C2629.92,1202.7,2633.62,1194.19,2634.89,1191.75z"/>
		</g>
		<g>
			<path class="st6" d="M2544.21,854.64c0,0,8.52-18.39-2.22-31.65c-10.74-13.26-27.13-17.83-41.91-13.26
				c-14.78,4.57-25.41,1.49-33.19,4s-2.54,11.09,2.9,11.32c0,0-12.39,6.63-8.73,13.72c3.66,7.09,12.12,7.77,22.86,4.57
				c10.74-3.2,24.85-6.63,27.74-2.97c2.89,3.66,1.2,11.85,7.65,15.41S2544.21,854.64,2544.21,854.64z"/>
		</g>
		<g>
			<path class="st6" d="M2503.9,809.79c0,0-14.38,1.54-18.84,0c-4.46-1.54-8.23,2.23-3.77,4.29
				C2485.74,816.14,2503.9,809.79,2503.9,809.79z"/>
		</g>
	</g>
	<g>
		<g>
			<path class="st4" d="M2020.86,1109.57c3.51,5.62,7.97,18.31,11.37,24c1.48,2.47,5.88,11.11,3.65,12.94
				c-1.93,1.58-8.65-3.59-11.55-6.45c-1.19,19.03-11.31,46.28-11.69,6.23c-0.02,0-0.04,0-0.06,0c-0.33,4.06-2.18,26.62-7.33,24.06
				c-4.55-2.26-3.89-18.46-3.42-25.14c-0.06-0.01-0.12-0.02-0.18-0.03c-1.06,6.75-4.04,22.96-7.68,19.39
				c-4.57-4.48-4.26-22.26-4.26-22.26s-0.88,22.71-6.78,18.2c-3.32-2.54-1.48-15.49-0.22-23.54v0c0,0,0,0,0,0
				c0.27-1.69,0.51-3.16,0.67-4.28c0.13-0.92,0.35-1.73,0.63-2.45c2.95-13.31,7.05-21.39,7.05-21.39s3.14-10.33,14.87-9.41
				C2013.41,1100.01,2019.34,1107.13,2020.86,1109.57z"/>
		</g>
		<g>
			<g>
				<path class="st5" d="M2029.73,1112.29c42.47-27.9-3.15-114.28,14.5-173.9c4.09-13.81,5.85-19.03,9.39-26.71
					c2.84-6.19-4.82-18.23-15.35-23.21c-9.88-4.67-33.59-1.6-35.46,1.53c-28.59,47.71-37.83,126.05-23.59,226.04
					C1979.21,1116.04,2011.5,1124.27,2029.73,1112.29z"/>
			</g>
		</g>
		<g>
			<path class="st6" d="M2092.83,1474.12c0,0-0.36,14.39-10.1,18.45c-9.74,4.06-37.95,7.72-27.41,16.97
				c6.05,5.31,34.56,1.88,42.6,1.88c8.05,0,15.61,3.51,21.59-1.88c6.58-5.93,0-35.42,0-35.42s-6.95,3.62-13.19,3.46
				C2097.32,1477.34,2092.83,1474.12,2092.83,1474.12z"/>
		</g>
		<g>
			<path class="st8" d="M2008.82,1039.86c0,0-1.94,64.94,18.78,189.52c14.96,89.94,32.62,180.56,41.29,224.01
				c3.1,15.54,16.17,26.91,31.66,27.53l8.32,0.33c16.75,0.67,30.34-13.72,29.12-30.82l-21.02-293.94l-5.18-96.75L2008.82,1039.86z"
				/>
		</g>
		<g>
			<path class="st6" d="M2185.04,1474.12c0,0-0.36,14.39-10.1,18.45c-9.74,4.06-37.95,7.72-27.41,16.97
				c6.05,5.31,34.56,1.88,42.6,1.88c8.05,0,15.61,3.51,21.59-1.88c6.58-5.93,0-35.42,0-35.42s-6.95,3.62-13.19,3.46
				C2189.54,1477.34,2185.04,1474.12,2185.04,1474.12z"/>
		</g>
		<g>
			<path class="st8" d="M2101.04,1039.86c0,0-1.94,64.94,18.78,189.52c14.96,89.94,32.62,180.56,41.29,224.01
				c3.1,15.54,16.17,26.91,31.66,27.53l8.32,0.33c16.75,0.67,30.34-13.72,29.12-30.82l-21.02-293.94l-5.18-96.75L2101.04,1039.86z"
				/>
		</g>
		<g>
			<path class="st6" d="M2214.2,1111.03c-0.2,7.84-47.58,10.95-106.17,9.12c-58.6-1.83-105.42-9.93-105.22-17.77
				c0.2-7.84,47.35-12.43,105.95-10.61S2214.4,1103.19,2214.2,1111.03z"/>
		</g>
		<g>
			<path class="st5" d="M2199.85,889.21c0,0-10.36-41.07-86.81-41.48c-110.25-0.6-100.04,100.7-110.24,254.65
				c0,0,108.6-15.36,211.45,6.72C2214.25,1109.1,2223.79,951.96,2199.85,889.21z"/>
		</g>
		<g>
			<path class="st5" d="M2228.07,883.32l-49.93,27.63c0,0-109.33,9.93-138.35,5.15c-29.02-4.78-36.99-26.09-36.99-26.09
				s30.91-31.98,83.45-40.52c4.94-0.81,10.06-1.4,15.36-1.75c8.91-0.57,17.84-0.45,26.56,0.53
				C2194.77,855.77,2228.07,883.32,2228.07,883.32z"/>
		</g>
		<g>
			<path class="st8" d="M2012.03,1108.72c0,0,63.49-18.68,194.98,6.96l1.01,18.92l-192.76,6.81L2012.03,1108.72z"/>
		</g>
		<g>
			<g>
				<path class="st5" d="M2237.64,1109.1c-4.6-50.6-42.02-183.07-46.38-190.32c-3.51-5.83,2.77-18.65,12.69-24.77
					c9.3-5.74,21.33-13.04,24.12-10.69c39.3,33.13,73.12,154.21,62.45,221.29L2237.64,1109.1z"/>
			</g>
		</g>
		<g>
			<path class="st4" d="M2138.22,846.71c-6.61,10.67-20.88,11.11-32.52,7.65c-9.36-2.78-8.08-2.87-7.04-4.45
				c2.55-3.91,4.92-5.08,4.57-9.15l-0.46-5.34l-0.06-0.66l-0.61-6.97l-1.03-12.02l-2.74-31.61l13.85,30.36l2.35,5.17l8.09,17.75
				C2125.22,843.15,2138.16,846.71,2138.22,846.71z"/>
		</g>
		<g>
			<path class="st6" d="M2116.31,824.26c0,0-3.72,8.41-13.55,11.16l-0.06-0.66l-0.61-6.97
				C2107.45,826.57,2116.31,824.26,2116.31,824.26z"/>
		</g>
		<g>
			<path class="st8" d="M2054.25,1037.14c0,0,3.19,29.28,24,45.11c0,0,12.95-8.47,22.31-22.31c4.58-6.47,8.27-14.14,9.46-22.81
				c0.5-3.88,0.6-11.05,0.4-20.32c-0.3-7.47-0.8-16.33-1.29-25.99c-0.9-16.93-2.19-36.15-3.09-54.28
				c-0.5-9.96-0.89-19.62-1.09-28.28c-0.4-18.42,0.1-32.86,2.39-37.94l-9.96-3.09c0,0-4.28,11.06-10.16,27.88
				c-2.19,6.47-4.68,13.74-7.27,21.51c-3.98,12.45-8.27,26.29-12.15,40.23c-2.09,7.67-4.18,15.44-5.88,23.01
				c-3.68,15.64-6.47,30.57-7.37,43.12C2054.05,1028.18,2053.95,1032.86,2054.25,1037.14z"/>
		</g>
		<g>
			<path class="st6" d="M2290.52,1104.62c0.31,7.33-11.34,13.89-26.03,14.66c-14.69,0.77-26.85-4.54-27.16-11.87
				c-0.31-7.33,11.34-13.89,26.03-14.66S2290.21,1097.29,2290.52,1104.62z"/>
		</g>
		<g>
			<path class="st6" d="M2002.16,1102.44c-0.09-1.09-8.96-110.07,22.65-177.57l1.16,0.53c-31.46,67.21-22.62,175.83-22.53,176.92
				L2002.16,1102.44z"/>
		</g>
		<g>
			<path class="st6" d="M2215.5,1004.69c-8.31-33.96-25.57-58.12-25.75-58.37l1.05-0.74c0.17,0.24,17.57,24.58,25.95,58.81
				L2215.5,1004.69z"/>
		</g>
		<g>
			<path class="st6" d="M2074.77,771.81c0,0-2.27,7.64-0.59,17.38c1.69,9.74,12.33-13.7,12.33-13.7L2074.77,771.81z"/>
		</g>
		<g>
			
				<ellipse transform="matrix(0.1637 -0.9865 0.9865 0.1637 971.1667 2738.7341)" class="st4" cx="2100.87" cy="796.58" rx="34.16" ry="28.33"/>
		</g>
		<g>
			<g>
				<path class="st9" d="M2097.19,793.79c-0.14-0.1-0.24-0.26-0.25-0.45c-0.02-0.32,0.23-0.59,0.54-0.6
					c0.19-0.01,4.49-0.63,6.49,3.99c0.13,0.29,0,0.63-0.28,0.76c-0.29,0.13-0.57-0.03-0.76-0.28c-1.92-2.54-5.23-3.33-5.39-3.32
					C2097.41,793.89,2097.29,793.86,2097.19,793.79z"/>
			</g>
		</g>
		<g>
			<path class="st9" d="M2099.43,801.24c-0.41,1.31-1.5,2.13-2.45,1.84c-0.95-0.29-1.39-1.59-0.99-2.9c0.41-1.31,1.5-2.13,2.45-1.84
				C2099.39,798.63,2099.83,799.93,2099.43,801.24z"/>
		</g>
		<g>
			<g>
				<path class="st9" d="M2077.29,790.2c-0.13-0.04-0.23-0.16-0.26-0.33c-0.06-0.29,0.1-0.61,0.34-0.73
					c0.15-0.07,3.45-2.03,5.67,1.59c0.14,0.23,0.09,0.58-0.12,0.79c-0.21,0.21-0.45,0.16-0.64-0.02c-1.87-1.72-4.59-1.38-4.71-1.33
					C2077.48,790.23,2077.38,790.23,2077.29,790.2z"/>
			</g>
		</g>
		<g>
			<path class="st9" d="M2081.52,796.85c-0.05,1.37-0.89,2.45-1.89,2.42c-0.99-0.04-1.76-1.17-1.71-2.54
				c0.05-1.37,0.89-2.45,1.89-2.42C2080.8,794.34,2081.57,795.48,2081.52,796.85z"/>
		</g>
		<g>
			<path class="st6" d="M2147.98,792.99c0,0-10.16,20.11-23.63,21.15c0,0,9.06-20.73-5.51-30.68
				C2118.84,783.46,2134.3,786.08,2147.98,792.99z"/>
		</g>
		<g>
			<path class="st4" d="M2128.68,803.62c-2.93,1.73-6.56,1.01-8.11-1.61c-1.55-2.62-0.42-6.15,2.51-7.88
				c2.93-1.73,6.56-1.01,8.11,1.61C2132.74,798.36,2131.61,801.89,2128.68,803.62z"/>
		</g>
		<g>
			<path class="st6" d="M2123.41,1253.18c-0.19-0.91-18.82-91.48-22.82-105.66c-3.94-13.95-18.26-17.2-18.4-17.25l0.18-0.8
				c0.15,0.03,14.94,3.37,19.02,17.81c4.01,14.21,22.65,104.81,22.84,105.72L2123.41,1253.18z"/>
		</g>
		<g>
			<path class="st8" d="M2112.86,854.55c0,0-13.43-4.15-17-0.93c-3.57,3.22-0.94,17.98,5.24,19.29
				C2107.28,874.22,2118.97,858.11,2112.86,854.55z"/>
		</g>
		<g>
			<path class="st10" d="M2104.97,851.07c0,0,17.53-6.2,20.95-12.39c3.42-6.2,21.57,8.12,21.26,12.39
				c-0.32,4.27-33.01,27.99-35.14,25C2109.89,873.08,2100.69,855.13,2104.97,851.07z"/>
		</g>
		<g>
			<path class="st10" d="M2104.97,851.07c0,0-2.62-6.51-1.36-10.04c0,0,0.83-3.1-1.84-2.89c-2.67,0.21-17.2,10.36-18.48,13.46
				c-1.28,3.1-1.5,17.63,3.21,18.7c4.7,1.07,16.03-14.54,17.36-16.08C2105.19,852.67,2104.97,851.07,2104.97,851.07z"/>
		</g>
		<g>
			<path class="st6" d="M2101.2,873.23c-0.04,0-0.07,0-0.1,0c-4.07-0.06-6.29-8.04-6.39-8.38l0.62-0.18
				c0.02,0.09,2.18,7.87,5.78,7.91c0.03,0,0.06,0,0.09,0c3.66,0,6.94-3.4,6.97-3.43l0.47,0.44
				C2108.49,869.74,2105.13,873.23,2101.2,873.23z"/>
		</g>
		<g>
			<path class="st6" d="M2083.47,813.8c-0.2,0-0.4-0.09-0.52-0.28c-0.18-0.28-0.1-0.66,0.19-0.84c0.08-0.04,8.66-5.36,15.18-0.16
				c0.26,0.21,0.3,0.59,0.1,0.85c-0.21,0.27-0.58,0.31-0.86,0.09c-5.83-4.64-13.68,0.21-13.76,0.25
				C2083.7,813.78,2083.58,813.8,2083.47,813.8z"/>
		</g>
		<g>
			<g>
				<g>
					<path class="st6" d="M2244.12,1173.13l-7.07-1.31l5.35-28.91c1.51-7.39,8.05-12.71,15.56-12.72l23.78-0.05
						c6.85-0.01,12.92,4.31,15.14,10.75l0.04,0.13l9.83,32.55l-6.88,2.08l-9.81-32.48c-1.23-3.5-4.56-5.84-8.3-5.83l-23.78,0.05
						c-4.12,0.01-7.7,2.91-8.52,6.91L2244.12,1173.13z"/>
				</g>
			</g>
			<g>
				<path class="st7" d="M2315.74,1261.23l-110.03,10.15c-7.75,0.71-14.62-4.91-15.38-12.6l-7.71-77.89
					c-0.81-8.16,5.55-15.29,13.81-15.48l133.35-3.09c9.17-0.21,16.1,8.15,14.14,17.05l-15.61,70.83
					C2326.99,1256.19,2321.9,1260.66,2315.74,1261.23z"/>
			</g>
			<g>
				<g>
					<polygon class="st6" points="2266,1218.5 2341.69,1191.53 2341.13,1189.95 2265.92,1216.75 2184.35,1195.51 2183.93,1197.13 
											"/>
				</g>
			</g>
			<g>
				<g>
					<path class="st6" d="M2267.25,1224.7L2267.25,1224.7c-2.53-0.01-4.6-2.07-4.59-4.58l0.02-4.42c0.01-2.52,2.09-4.57,4.63-4.56
						l0,0c2.53,0,4.6,2.07,4.59,4.58l-0.02,4.42C2271.86,1222.65,2269.78,1224.7,2267.25,1224.7z"/>
				</g>
			</g>
		</g>
		<g>
			<path class="st4" d="M2238.67,1130.09c1.62-3.12,3.41-8.3,5.21-13.25c1.45-3.99,4.45-12.08,5.55-14.69
				c2.59-6.21,18.83-6.92,24.44-3.46c5.52,3.41,7.51,12.49,11.22,24.93c0.32,0.66,0.58,1.41,0.77,2.28
				c1.31,6.04,4.29,14.36,0.6,17.56c-4.03,3.49-6.53-2.52-7.55-5.81c0.69,3.02,1.5,8.83-1.46,12.11c-3.12,3.45-6.7-5.99-8.25-10.79
				c-0.01,0-0.03,0.01-0.04,0.01c1.1,4.32,2.64,12.67-1.3,14.94c-4.66,2.69-8.25-10.16-9.21-13.1c-0.11,0.01-0.23,0.02-0.34,0.02
				c-2.72,18.29-10.01,9.05-11.66-5.03c-2.67,2.93-8.72,8.18-10.67,6.82C2233.7,1141.04,2237.4,1132.54,2238.67,1130.09z"/>
		</g>
		<g>
			<path class="st6" d="M2147.98,792.99c0,0,5.38-18.07-6.97-31.44c-12.35-13.37-38.85-19.2-46-16.46s-6.47,8.23-6.47,8.23
				s-13.37-4.12-16.46,2.4c-3.09,6.52,1.47,9.26,1.47,9.26s-12.48,4.59-5.93,14.4c6.55,9.82,19.28-0.34,36.22-0.34
				s22.03,12.53,22.03,12.53L2147.98,792.99z"/>
		</g>
	</g>
	<g>
		<g>
			<g>
				<path class="st4" d="M2239.58,357.06c-4.54,15.06-10.28,21.2-10.28,21.2s-11.12,12.51-28.71,27.26
					c-0.93,0.76-1.86,1.54-2.82,2.33c-17.43,14.3-40.54,30.15-65.25,38.61c-1.08,0.37-2.16,0.72-3.26,1.06
					c-2.38,0.76-4.77,1.43-7.17,2.02c-0.08,0.02-0.16,0.05-0.24,0.06c-0.43,0.11-0.87,0.22-1.3,0.31
					c-5.75,1.35-11.56,2.22-17.37,2.53c-2.7,0.14-5.41,0.17-8.11,0.05c-1.8-0.08-6.08,2.79-11.82,7.39
					c-4.89,3.92-10.84,9.08-17.19,14.75c-2.63,2.37-5.35,4.82-8.08,7.29c-0.98,0.89-1.98,1.79-2.97,2.69
					c-3.14,2.85-6.28,5.72-9.37,8.53c-16.16,14.68-30.76,27.71-34.09,27.71c-10.81,0-24.88-36.36-36.88-72.36
					c-1.92-5.73-3.78-11.46-5.57-17.02c-5.93-18.52-11.06-35.29-14.6-44.84c-0.4-1.05-0.77-2.01-1.12-2.87
					c-1.57-3.93-2.73-5.92-3.38-5.31c-0.7,0.66-1.39,1.37-2.09,2.1c-2.11,2.25-4.23,4.83-6.35,7.6
					c-7.69,10.09-15.54,22.81-24.23,31.75c-10.42,10.69-22.03,15.99-36.06,4.9c-17.01-13.45,19.21-58.73,24.3-74.01
					c4.83-14.5,23.18-51.4,34.16-70.27c23.41-40.23,46.57-86.08,64.89-122.08c7.27-14.3,11.82-44.29,14.66-74.39
					c73.04-1,144.67-1.25,212.85-0.62c-9.85,29.01-18.66,60.12-21.95,86.15c-1.31,10.28-1.75,19.77-1.05,28.03
					c0.7,8.42,2.58,15.57,5.96,20.95c0.23,0.4,0.48,0.78,0.74,1.15c1.6,2.28,4.23,7.09,7.26,13.38v0.01
					c8.39,17.41,19.86,46.27,21.27,65.29C2246.37,325.37,2243.4,344.37,2239.58,357.06z"/>
			</g>
			<g>
				<g>
					<path class="st11" d="M2158.31,198.66c0.49,0.33,0.81,0.89,0.82,1.53c0.01,0.56,0.15,13.81-7.5,29.25
						c-4.49,9.06-10.76,16.98-18.62,23.53c-9.79,8.16-22.08,14.21-36.54,17.97c-1.01,0.26-2.04-0.34-2.31-1.35
						c-0.26-1.01,0.34-2.04,1.35-2.31c13.91-3.62,25.71-9.41,35.07-17.22c7.46-6.22,13.4-13.72,17.66-22.31
						c7.25-14.62,7.11-27.37,7.11-27.5c-0.02-1.04,0.81-1.91,1.86-1.92C2157.62,198.32,2158,198.44,2158.31,198.66z"/>
				</g>
			</g>
			<g>
				<path class="st11" d="M1886.39,415.35c-0.38,0-0.76-0.15-1.05-0.44c-0.57-0.57-0.57-1.5,0.01-2.08
					c7.89-7.82,18.43-20.43,17.2-23.96c-1.82-5.23-6.03-6.54-6.08-6.55c-0.77-0.24-1.22-1.06-0.98-1.84
					c0.23-0.77,1.04-1.25,1.83-0.99c0.24,0.07,5.7,1.78,8.01,8.41c2.27,6.55-14.52,23.67-17.91,27.03
					C1887.14,415.2,1886.76,415.35,1886.39,415.35z"/>
			</g>
		</g>
		<g>
			<path class="st4" d="M2028.58,550.25c0,0,26.16,94.23,71.76,83.93s-13.25-122.03-13.25-122.03L2028.58,550.25z"/>
		</g>
		<g>
			<polygon class="st12" points="2233.2,211.71 2087.6,519.55 1931.12,421.09 2118.53,144.49 			"/>
		</g>
		<g>
			
				<rect x="1873.76" y="416.54" transform="matrix(0.5057 -0.8627 0.8627 0.5057 527.5737 1967.0896)" class="st6" width="213.23" height="213.23"/>
		</g>
		<g>
			
				<ellipse transform="matrix(0.5057 -0.8627 0.8627 0.5057 421.5713 1966.0425)" class="st0" cx="1926.46" cy="615.14" rx="42.48" ry="106.62"/>
		</g>
		<g>
			
				<ellipse transform="matrix(0.5057 -0.8627 0.8627 0.5057 636.4837 1968.1664)" class="st6" cx="2035.77" cy="428.65" rx="42.48" ry="106.62"/>
		</g>
		<g>
			
				<ellipse transform="matrix(0.5057 -0.8627 0.8627 0.5057 922.103 1965.1827)" class="st12" cx="2175.97" cy="177.92" rx="26.48" ry="66.46"/>
		</g>
		<g>
			<g>
				<g>
					<path class="st4" d="M2223.94,344.42l-55.4-19.21c-14.04-8.27-32.13-3.59-40.4,10.45l0,0c-8.27,14.04-3.6,32.12,10.44,40.4
						l36.39,21.44c24.95,14.23,46.7,19.83,60-2.78C2253.75,362.78,2237.51,352.42,2223.94,344.42z"/>
				</g>
				<g>
					<path class="st11" d="M2158.05,375.7c-0.17,0-0.33,0-0.5-0.01c-8.83-0.82-22.42-7.92-22.78-16.73
						c-0.28-6.66,4.42-18.25,9.15-22.52c1.7-1.55,3.4-2.22,5.1-1.99c1.06,0.12,17.37,1.99,25.26,6.85c1.95,1.21,4.79,4.54,1.86,13.3
						C2173.2,363.4,2164.81,375.7,2158.05,375.7z M2148.39,338.83c-0.21,0-0.73,0.18-1.51,0.88c-3.74,3.39-7.92,13.73-7.7,19.06
						c0.24,5.85,11.7,11.83,18.77,12.49c0.05,0.01,0.1,0.01,0.15,0.01c3.27,0,10.84-9.15,13.83-18.09c1.37-4.09,1.37-7.29,0.01-8.13
						c-7.13-4.39-23.29-6.2-23.45-6.23h-0.07C2148.42,338.83,2148.41,338.83,2148.39,338.83z"/>
				</g>
				<g>
					<path class="st11" d="M2229.29,349.35c-0.31,0-0.62-0.06-0.92-0.19c-0.54-0.25-53.75-24.51-67.91-25.95
						c-13.38-1.33-20.75,4.4-20.83,4.48c-0.95,0.77-2.34,0.62-3.11-0.31c-0.78-0.94-0.66-2.33,0.29-3.11
						c0.35-0.28,8.72-7.04,24.1-5.48c14.87,1.53,67.07,25.33,69.29,26.33c1.11,0.52,1.61,1.83,1.09,2.93
						C2230.93,348.88,2230.13,349.35,2229.29,349.35z"/>
				</g>
			</g>
			<g>
				<g>
					<path class="st4" d="M2211.51,410.39l-63.67-28.43c-15.79-11.23-37.69-7.54-48.93,8.25l0,0c-11.23,15.79-7.55,37.69,8.24,48.93
						l40.92,29.12c28.11,19.4,53.3,28.27,71.37,2.83C2244.96,435.18,2226.78,421.25,2211.51,410.39z"/>
				</g>
				<g>
					<path class="st11" d="M2129.82,440.23c-0.38,0-0.77-0.03-1.14-0.1c-10.22-1.84-25.38-11.44-24.93-21.7
						c0.35-7.85,7.03-20.93,12.98-25.45c2.08-1.58,4.09-2.18,5.91-1.75c1.22,0.24,20.28,4.11,29.05,10.62
						c3.62,2.7,3.87,8.19,0.71,15.49C2148.17,427.09,2137.58,440.23,2129.82,440.23z M2121.48,395.52c-0.49,0-1.25,0.35-2.07,0.97
						c-4.96,3.77-10.94,15.55-11.25,22.14c-0.32,7.14,12.86,15.61,21.3,17.13c3.82,0.75,14.15-9.32,18.87-20.19
						c2.17-4.99,2.45-8.88,0.72-10.16c-8.07-5.99-27.12-9.81-27.31-9.85l-0.07-0.01C2121.62,395.54,2121.56,395.52,2121.48,395.52z"
						/>
				</g>
				<g>
					<path class="st11" d="M2167.56,392.98c-0.41,0-0.82-0.1-1.2-0.35c-7.84-5.04-30.39-17.7-40.41-14.95
						c-1.17,0.31-2.39-0.43-2.7-1.59c-0.31-1.19,0.4-2.4,1.59-2.71c13.92-3.61,42.7,14.74,43.91,15.54
						c1.02,0.66,1.33,2.03,0.66,3.05C2169,392.62,2168.29,392.98,2167.56,392.98z"/>
				</g>
			</g>
			<g>
				<g>
					<path class="st4" d="M2169.26,472.81l-58.94-37.26c-14.01-13.38-36.22-12.86-49.6,1.15l0,0c-13.38,14.01-12.87,36.22,1.15,49.6
						l36.32,34.68c25.03,23.23,48.69,35.61,70.22,13.03C2198.8,502.14,2182.81,485.75,2169.26,472.81z"/>
				</g>
				<g>
					<path class="st11" d="M2085.22,490.72c-0.77,0-1.51-0.12-2.19-0.34c-9.85-3.31-23.48-14.99-21.56-25.05
						c1.47-7.72,9.96-19.72,16.5-23.33c2.27-1.27,4.3-1.56,6.09-0.88c1.2,0.43,19.49,6.98,27.23,14.67
						c3.2,3.18,2.66,8.65-1.52,15.42C2104.43,479.85,2092.93,490.72,2085.22,490.72z M2082.1,445.19c-0.49,0-1.2,0.24-2,0.68
						c-5.34,2.95-13.09,13.95-14.3,20.28c-1.33,7.03,10.49,17.29,18.63,20.02c3.76,1.43,15.34-7.2,21.56-17.29
						c2.85-4.62,3.68-8.44,2.16-9.94c-7.12-7.08-25.43-13.59-25.61-13.65l-0.07-0.03C2082.37,445.2,2082.25,445.19,2082.1,445.19z"
						/>
				</g>
				<g>
					<path class="st11" d="M2154.52,465.71c-0.52,0-1.03-0.18-1.45-0.53c-0.49-0.41-48.07-41.33-69.11-37.07
						c-1.22,0.28-2.36-0.53-2.61-1.72c-0.24-1.21,0.54-2.37,1.73-2.61c23.29-4.9,70.88,36.29,72.9,38.04
						c0.93,0.81,1.02,2.21,0.22,3.14C2155.76,465.46,2155.14,465.71,2154.52,465.71z"/>
				</g>
			</g>
		</g>
	</g>
	<g>
		<ellipse class="st13" cx="1353.56" cy="1591.53" rx="360.26" ry="34.08"/>
	</g>
	<g>
		<g>
			<path class="st4" d="M1588.91,679.71c-1.46-7.73-0.99-23.75-2.3-31.51c-0.57-3.37-2.69-18.84,0.48-19.96
				c2.76-0.97,8.84,11.57,10.8,15.96c15.96-51.21,48.6,12.14,43.86,20.62v0c0,0,0,0,0,0c-0.99,1.78-1.87,3.33-2.51,4.51
				c-0.53,0.98-1.11,1.79-1.71,2.47c-8.77,13.67-16.6,21-16.6,21s-7.72,10.25-20.07,4.39
				C1592.99,693.46,1589.54,683.06,1588.91,679.71z"/>
		</g>
		<g>
			<path class="st13" d="M1330.86,924.37c0,0,7.95-46.76,90.98-53.57c63.95-5.24,128.78,32.47,136.48,89.8
				c10.64,79.29,12.54,121.67,3.95,161.62c0,0-175.97-31.9-230.44,6.57c0,0,18.72-73.56-2.28-177.35
				C1327.43,940.91,1328.44,932.71,1330.86,924.37z"/>
		</g>
		<g>
			<g>
				<path class="st13" d="M1248.85,723.33c17.6,59.21,113.07,149.72,147.53,151.17c7.41,0.31-63.72,92.07-64.91,88.17
					c-5.98-19.53-11.72-28.07-24.42-42.3c-41.56-46.6-98.33-109.1-107.92-166.58L1248.85,723.33z"/>
			</g>
		</g>
		<g>
			<path class="st13" d="M1438.32,871.45c0,0,122.39-49.63,138.72-179.69c0.99-7.92,8.36-13.27,15.95-11.58l23.93,5.32
				c4.37,0.97,7.52,4.88,7.61,9.47c0.53,24.47-2.69,103.71-57.37,205.16c-5.61,10.41-16.8,26.52-9.01,60.36L1438.32,871.45z"/>
		</g>
		<g>
			<path class="st6" d="M1331.66,1128.66c0.1,11.39,51.68,17.26,115.55,16.27c63.87-0.99,115-11.44,114.9-22.83
				c-0.1-11.39-53.07-30.74-116.94-29.75C1381.3,1093.34,1331.55,1117.27,1331.66,1128.66z"/>
		</g>
		<g>
			<g>
				<path class="st4" d="M1422.97,859.37l1.98-22.09l0.58-6.43l3.39-37.81l8.66,34.99l5.2,21.01l1.65,6.65
					c1.12,4.51,4.01,4.88,8.11,8.13c1.66,1.31,12.17,9.18,3.41,15.67c-10.91,8.09-35.11,4.7-45.89-4.29
					C1410.11,875.17,1422.33,866.51,1422.97,859.37z"/>
			</g>
			<g>
				<g>
					<path class="st14" d="M1453.68,773.73c0,0,3.95,8.12,3.98,19.36c0.04,11.24-16.06-12.91-16.06-12.91L1453.68,773.73z"/>
				</g>
				<g>
					
						<ellipse transform="matrix(0.9565 -0.2918 0.2918 0.9565 -173.1504 452.4152)" class="st4" cx="1430.01" cy="806.64" rx="31.42" ry="38.76"/>
				</g>
				<g>
					<path class="st6" d="M1397.45,806.64l14.51-4.81c3.19-1.06,5.8-3.51,6.99-6.74c2.03-5.56,5.18-8.87,19.13-11.34
						c17.67-3.14,27.03-16.4,26.98-26.25c-0.05-10.05-10.36-14.63-18.22-8.12c-7.86,6.51-6.4-5.57-15.11-4.93
						c-16.28,1.21-16.66,14.4-29.7,16.81c-17.09,3.16-44.79,23.06-24.03,50.67L1397.45,806.64z"/>
				</g>
				<g>
					<g>
						<path class="st9" d="M1431.3,804.7c0.14-0.14,0.21-0.34,0.19-0.55c-0.04-0.36-0.36-0.61-0.71-0.57
							c-0.2,0.03-5.01,0.18-6.3,5.75c-0.08,0.35,0.12,0.71,0.46,0.8c0.34,0.09,0.61-0.15,0.77-0.47c1.6-3.22,5.06-4.76,5.23-4.78
							C1431.08,804.86,1431.2,804.79,1431.3,804.7z"/>
					</g>
				</g>
				<g>
					<path class="st9" d="M1430.29,813.49c0.69,1.39,2.05,2.09,3.03,1.57c0.98-0.52,1.21-2.06,0.52-3.45
						c-0.69-1.39-2.05-2.09-3.03-1.57C1429.83,810.55,1429.59,812.1,1430.29,813.49z"/>
				</g>
				<g>
					<g>
						<path class="st9" d="M1453.9,797.8c0.14-0.06,0.24-0.2,0.27-0.39c0.05-0.33-0.14-0.69-0.42-0.81
							c-0.16-0.07-3.92-2.12-6.18,2.12c-0.14,0.27-0.07,0.66,0.17,0.9c0.24,0.23,0.51,0.15,0.71-0.05c1.97-2.06,5-1.82,5.13-1.77
							C1453.69,797.84,1453.8,797.84,1453.9,797.8z"/>
					</g>
				</g>
				<g>
					<path class="st9" d="M1449.58,805.58c0.13,1.55,1.12,2.74,2.21,2.64c1.1-0.09,1.88-1.43,1.75-2.99
						c-0.13-1.55-1.12-2.74-2.21-2.64C1450.24,802.69,1449.45,804.03,1449.58,805.58z"/>
				</g>
				<g>
					<path class="st14" d="M1378.01,811.93c0,0,14.92,20.52,29.8,19.03c0,0-15.32-14.78,7.28-30.73
						C1415.09,800.22,1391.59,801.49,1378.01,811.93z"/>
				</g>
				<g>
					
						<ellipse transform="matrix(0.4432 -0.8964 0.8964 0.4432 51.4678 1711.172)" class="st4" cx="1403.21" cy="814.15" rx="6.24" ry="6.85"/>
				</g>
				<g>
					<path class="st14" d="M1415.09,800.22c0,0,1.94,19.52,6.46,22.31c4.52,2.79,29.78-1.09,40.47-8.25l0,0
						c2.71,12.22-3.46,24.87-14.8,29.46c-3.75,1.52-7.77,2.4-11.92,2.55h0c-8.45,0.31-17.08-1.44-22.04-8.48
						c-1.51-2.14-1.53-17.35-1.53-17.35s-0.64-8.79-6.38-12.18C1405.35,808.29,1409.86,801.92,1415.09,800.22z"/>
				</g>
				<g>
					<path class="st0" d="M1457.29,822.51c0,0-9.01,4.74-19.66,5.97c0,0,3.58,9.61,13.74,5.33
						C1457.26,831.32,1457.29,822.51,1457.29,822.51z"/>
				</g>
				<g>
					<path class="st6" d="M1443.23,748.44c-3.44,0-4.43-3.15-4.44-3.2l0.82-0.25c0.04,0.16,1.08,3.45,5.1,2.37l0.21,0.85
						C1444.3,748.36,1443.74,748.44,1443.23,748.44z"/>
				</g>
				<g>
					<path class="st0" d="M1442.01,777.6l-0.21-0.38c0.18-0.09,17.65-9.84,16.4-19.88c-0.36-2.87-1.22-4.64-2.6-5.39
						c-2.17-1.22-5.36,0.34-8.17,1.69c-0.43,0.21-0.85,0.41-1.25,0.59l-0.18-0.38c0.4-0.19,0.82-0.4,1.24-0.6
						c2.89-1.4,6.17-2.98,8.56-1.68c1.52,0.82,2.44,2.7,2.82,5.71C1459.93,767.62,1442.75,777.2,1442.01,777.6z"/>
				</g>
				<g>
					<path class="st0" d="M1395.48,766.39l-0.03-0.44c18.72-1.43,25.33-13.86,25.39-13.99l0.38,0.21
						C1421.16,752.28,1414.46,764.93,1395.48,766.39z"/>
				</g>
			</g>
		</g>
		<g>
			<path class="st15" d="M1437.05,876.16c0,0,14.26-5.76,18.4-2.45s2.47,20.01-4.14,21.99S1430.7,880.64,1437.05,876.16z"/>
		</g>
		<g>
			<path class="st6" d="M1231.29,752.35c-16.63,13.21-28.52,8.42-32.16,1.43s4.88-18.95,19.01-26.72
				c14.13-7.77,27.08-10.72,30.71-3.73C1252.48,730.31,1243.97,742.27,1231.29,752.35z"/>
		</g>
		<g>
			<path class="st7" d="M1480.17,1063.49c-0.47,2.63-2.92,4.36-5.47,3.88c-2.55-0.48-4.24-3.01-3.77-5.63
				c0.47-2.63,2.4-4.81,4.95-4.32C1479.48,1058.1,1480.64,1060.87,1480.17,1063.49z"/>
		</g>
		<g>
			<path class="st7" d="M1475.45,1020.26c-0.47,2.63-2.92,4.36-5.47,3.88c-2.55-0.48-4.24-3.01-3.77-5.63
				c0.47-2.63,2.4-4.81,4.95-4.32C1474.77,1014.87,1475.93,1017.64,1475.45,1020.26z"/>
		</g>
		<g>
			<path class="st7" d="M1469.64,971.32c-0.47,2.63-2.92,4.36-5.47,3.88c-2.55-0.48-4.24-3.01-3.77-5.63
				c0.47-2.63,2.4-4.81,4.95-4.32C1468.96,965.93,1470.11,968.69,1469.64,971.32z"/>
		</g>
		<g>
			<path class="st6" d="M1445.57,1550.31c0,0-0.45,17.59,11.85,23.24s48.42,12.11,34.25,22.66c-8.13,6.05-44.66-0.15-55.03-0.72
				c-10.37-0.57-20.34,3.18-27.7-3.82c-8.11-7.7,2.24-43.24,2.24-43.24s8.72,4.91,16.78,5.15
				C1439.57,1553.92,1445.57,1550.31,1445.57,1550.31z"/>
		</g>
		<g>
			<path class="st15" d="M1508.96,1114.8c38.84,9.26,45.84,13.61,43.4,37.52c-2.5,24.48-9.16,78.43-22.13,134.9
				c-23.17,100.85-49.6,202.31-62.51,250.94c-4.62,17.39-20.91,29.4-39.47,29.09l-9.97-0.17c-20.06-0.34-35.47-17.52-33-36.81
				l42.39-331.46l3.06-70.15L1508.96,1114.8z"/>
		</g>
		<g>
			<path class="st6" d="M1292.95,1550.31c0,0-0.45,17.59,11.85,23.24c12.29,5.64,48.42,12.11,34.25,22.66
				c-8.13,6.05-44.66-0.15-55.03-0.72c-10.37-0.57-20.34,3.18-27.7-3.82c-8.11-7.7,2.24-43.24,2.24-43.24s8.72,4.91,16.78,5.15
				C1286.95,1553.92,1292.95,1550.31,1292.95,1550.31z"/>
		</g>
		<g>
			<path class="st15" d="M1508.96,1114.8l-184.66,424.73c-6.77,17.47-24.31,28.73-43.58,27.98l-8.4-0.32
				c-19.84-0.77-34.09-18.96-29.49-37.65l104.81-400.87C1350.13,1119.67,1424.97,1098.23,1508.96,1114.8z"/>
		</g>
		<g>
			<path class="st16" d="M1409,1345.66c-0.1,0-0.19-0.01-0.29-0.04c-0.51-0.16-0.79-0.69-0.63-1.21l38.14-121.19
				c1.15-2.83,2.25-5.76,3.4-8.81c6.86-18.25,15.39-40.96,39.75-56.57c0.43-0.28,1.04-0.16,1.33,0.29c0.29,0.44,0.15,1.03-0.29,1.33
				c-23.82,15.26-32.23,37.65-38.99,55.63c-1.15,3.06-2.26,6.01-3.39,8.79L1409.91,1345
				C1409.79,1345.39,1409.4,1345.66,1409,1345.66z"/>
		</g>
		<g>
			<path class="st4" d="M1235.46,724.72c1.15-7.83,0.04-23.83,1.05-31.68c0.43-3.4,1.14-14.96-2.07-15.9
				c-2.79-0.82-7.55,8.04-9.33,12.54c-12.16-25.23-37.27-53.01-15.31-1.28c-0.02,0.01-0.05,0.02-0.07,0.03
				c-2.22-4.28-17.46-36.33-23.46-30.81c-4.39,4.04,8.93,30,12.51,37.09c-0.06,0.04-0.12,0.08-0.18,0.12
				c-4.24-6.89-15.93-28.4-20.31-24.75c-5.77,4.81,10.18,32.03,10.18,32.03s-12.68-22.94-16.87-15.2
				c-2.37,4.36,5.56,17.68,10.62,25.89l0,0c0,0,0,0,0,0c1.06,1.72,2,3.23,2.68,4.37c0.57,0.95,1.17,1.73,1.8,2.38
				c9.28,13.19,17.37,20.09,17.37,20.09s8.1,9.83,20.18,3.26C1231.94,738.71,1234.96,728.11,1235.46,724.72z"/>
		</g>
		<g>
			<path class="st15" d="M1442.24,893.7c-4.27,21.37-27.91,104.84-141.26,148.11c-7.28,2.78-13.82,7.29-18.99,13.26l-20.57,23.74
				c-3.71,4.28-2.27,11.05,2.85,13.34l30.2,13.51c10.34,4.63,22.02,5.13,32.65,1.25c36.77-13.44,131.29-82.68,131.25-219.8
				c0-5.85-4.67-1.31-10.18,0.16l0,0C1445.18,888.07,1442.87,890.56,1442.24,893.7z"/>
		</g>
		<g>
			<path class="st17" d="M1445.34,871.61c0,0-19.55-5.47-23.76-12.12c-4.21-6.64-22.78,10.86-22.1,15.61
				c0.69,4.75,38.12,28.55,40.2,25.03C1441.77,896.62,1450.33,875.79,1445.34,871.61z"/>
		</g>
		<g>
			<path class="st17" d="M1445.34,871.61c0,0,2.32-7.49,0.67-11.33c0,0-1.16-3.4,1.76-3.38s19.53,10.16,21.17,13.51
				c1.64,3.36,3.05,19.58-1.98,21.16c-5.02,1.58-18.59-14.92-20.16-16.54C1445.23,873.42,1445.34,871.61,1445.34,871.61z"/>
		</g>
		<g>
			<path class="st6" d="M1450.67,896.08c-4.05,0-7.65-3.3-7.81-3.45l0.49-0.53c0.04,0.04,3.9,3.58,7.94,3.24
				c3.95-0.35,6.74-8.28,6.77-8.37l0.66,0.24c-0.12,0.34-2.98,8.44-7.36,8.84C1451.12,896.06,1450.89,896.08,1450.67,896.08z"/>
		</g>
		<g>
			<g>
				<path class="st4" d="M1626.27,626.95c0,0-2.64-10.92-11.85-6.4c-11.74,5.75-15.37,15.54-12.88,19.33
					c2.11,3.2,14.77-5.58,14.77-5.58s-17.31,14.31-11.96,18.49c5.35,4.19,19.97-9.76,19.97-9.76s-15.02,15.16-10.75,19.81
					c4.16,4.54,18.51-9.92,18.51-9.92s-15.97,13.05-10.27,17.63c2.52,2.03,14.64-4.82,19.12-9.02c4.23-3.97,2.23-8.14-1.87-13.12
					c0,0,0.43-6.16-5.22-9.19c-1.39-0.74-0.87-4.55-1.48-5.57C1629.87,629.41,1626.27,626.95,1626.27,626.95z"/>
			</g>
		</g>
	</g>
</g>
</svg>
